<?xml version="1.0" encoding="UTF-8"?>
<!DOCTYPE svg PUBLIC "-//W3C//DTD SVG 1.1//EN" "http://www.w3.org/Graphics/SVG/1.1/DTD/svg11.dtd">
<svg version="1.1" xmlns="http://www.w3.org/2000/svg" xmlns:xlink="http://www.w3.org/1999/xlink" width="400" height="400" xml:space="preserve" id="logo">
	<path
		id="logo-left"
		stroke="none"
		fill="#FFFFFF"
		d="M 57.6,78.47 C 63.21,87.81 67.22,99.51 71.02,123.14 77.44,163.26 84.65,179.18 102.29,194.48 111.91,202.82 150.29,221.1 157.66,224.75 159.51,225.67 163.04,227.41 163.96,228.32 166.73,232.9 160,233 133.96,241.31 111.11,247.27 108.3,252.65 103.09,280.06 98.48,303.7 95.48,313.63 88.86,329.32 87.86,331.7 88.26,332.5 90.06,331.7 91.67,331.3 106.7,329.91 123.54,328.72 177.65,325.15 182.06,320.78 185.06,251.26 186.07,227.82 187.87,197.03 189.07,183.13 192.08,146.38 186.67,117.79 176.45,106.66 171.04,100.7 154.2,94.15 137.16,91.57 116.52,88.19 88.26,81.04 71.83,74.88 53.59,68.13 52.58,70.13 57.6,78.47 Z M 57.6,78.47"/>
	<path
		id="logo-right"
		stroke="none"
		fill="#FFFFFF"
		d="M 343.4,77.47 C 337.79,86.81 333.78,98.51 329.98,122.14 323.56,162.26 316.35,178.18 298.71,193.48 289.09,201.82 250.71,220.1 243.34,223.75 241.49,224.67 237.96,226.41 237.04,227.32 234.27,231.9 241,232 267.04,240.31 289.89,246.27 292.7,251.65 297.91,279.06 302.52,302.7 305.52,312.63 312.14,328.32 313.14,330.7 312.74,331.5 310.94,330.7 309.33,330.3 294.3,328.91 277.46,327.72 223.35,324.15 218.94,319.78 215.94,250.26 214.93,226.82 213.13,196.03 211.93,182.13 208.92,145.38 214.33,116.79 224.55,105.66 229.96,99.7 246.8,93.15 263.84,90.57 284.48,87.19 312.74,80.04 329.17,73.88 347.41,67.13 348.42,69.13 343.4,77.47 Z M 343.4,77.47"/>
</svg>